<?xml version="1.0" encoding="UTF-8" standalone="no"?>
<!-- Created with Inkscape (http://www.inkscape.org/) -->

<svg
   width="458.69897"
   height="102.99087"
   viewBox="0 0 121.3641 27.249668"
   version="1.1"
   id="svg5"
   xmlns="http://www.w3.org/2000/svg"
   xmlns:svg="http://www.w3.org/2000/svg">
  <defs
     id="defs2">
    <rect
       x="23.400534"
       y="33.300114"
       width="448.34167"
       height="140.13528"
       id="rect4983" />
  </defs>
  <g
     id="layer1"
     transform="translate(-1.7918608,-3.8891613)">
    <text
       xml:space="preserve"
       transform="scale(0.26458333)"
       id="text4981"
       style="font-style:normal;font-weight:normal;font-size:40px;line-height:1.25;font-family:sans-serif;white-space:pre;shape-inside:url(#rect4983);fill:#000000;fill-opacity:1;stroke:none" />
    <g
       aria-label="RÄtaka"
       id="text6353"
       style="font-size:33.8667px;line-height:1.25;stroke-width:0.264583">
      <path
         d="m 19.280972,13.788658 q 0,2.587763 -1.406771,4.202944 -1.406771,1.597814 -3.421405,2.39672 l 6.304416,10.16001 H 14.313856 L 9.1035943,21.343537 h -1.615181 v 9.204795 H 1.7918608 V 6.4769245 h 7.5722466 q 4.9150136,0 7.4159386,1.7888564 2.500926,1.7888561 2.500926,5.5228771 z m -5.870228,0 q 0,-1.736754 -1.024685,-2.518293 -1.007317,-0.798907 -3.0045841,-0.798907 H 7.4884133 v 6.964383 h 2.1188396 q 1.8583271,0 2.8309091,-0.868377 0.972582,-0.868377 0.972582,-2.778806 z"
         style="font-weight:bold;font-family:'Fira Code';-inkscape-font-specification:'Fira Code Bold'"
         id="path3302" />
      <path
         d="m 38.576257,25.233866 q 0,1.042052 0.27788,1.510975 0.295248,0.468924 0.937847,0.712069 l -1.12889,3.612448 q -1.632548,-0.156307 -2.761438,-0.712069 -1.111523,-0.573128 -1.754122,-1.719386 -1.059419,1.26783 -2.709336,1.893062 -1.649916,0.607864 -3.369302,0.607864 -2.848276,0 -4.550295,-1.615182 -1.684651,-1.632548 -1.684651,-4.185576 0,-3.004584 2.344617,-4.637133 2.361986,-1.632548 6.6344,-1.632548 h 2.483558 v -0.694702 q 0,-2.830909 -3.647183,-2.830909 -0.885744,0 -2.275148,0.260513 -1.389403,0.243146 -2.778806,0.712069 l -1.26783,-3.647183 q 1.788857,-0.677334 3.716653,-1.024684 1.945165,-0.347351 3.473508,-0.347351 4.116106,0 6.078638,1.684651 1.9799,1.667284 1.9799,4.828176 z m -8.614299,1.979899 q 0.885744,0 1.858326,-0.521026 0.972582,-0.538394 1.476241,-1.510976 v -2.987217 h -1.354668 q -2.292515,0 -3.369302,0.712069 -1.076788,0.694702 -1.076788,2.04937 0,1.05942 0.642599,1.667284 0.659967,0.590496 1.823592,0.590496 z M 36.092699,7.7100197 H 25.4985 V 3.8891613 h 10.594199 z"
         style="font-weight:bold;font-family:'Fira Code';-inkscape-font-specification:'Fira Code Bold'"
         id="path3304" />
      <path
         d="m 60.49404,29.471545 q -1.076788,0.694701 -2.605131,1.180992 -1.528343,0.486292 -3.438773,0.486292 -3.612447,0 -5.366569,-1.84096 -1.754121,-1.858326 -1.754121,-5.036586 V 15.89013 h -3.872961 v -3.786123 h 3.872961 V 8.109473 l 5.488142,-0.6599664 v 4.6545004 h 5.939698 l -0.538394,3.786123 h -5.401304 v 8.371153 q 0,1.372036 0.625231,1.962532 0.625232,0.590497 1.997267,0.590497 0.972582,0 1.771489,-0.225778 0.816274,-0.243146 1.458873,-0.607864 z"
         style="font-weight:bold;font-family:'Fira Code';-inkscape-font-specification:'Fira Code Bold'"
         id="path3306" />
      <path
         d="m 80.258248,25.233866 q 0,1.042052 0.277881,1.510975 0.295248,0.468924 0.937847,0.712069 l -1.12889,3.612448 q -1.632549,-0.156307 -2.761439,-0.712069 -1.111522,-0.573128 -1.754121,-1.719386 -1.05942,1.26783 -2.709336,1.893062 -1.649916,0.607864 -3.369302,0.607864 -2.848277,0 -4.550295,-1.615182 -1.684652,-1.632548 -1.684652,-4.185576 0,-3.004584 2.344618,-4.637133 2.361985,-1.632548 6.6344,-1.632548 h 2.483558 v -0.694702 q 0,-2.830909 -3.647183,-2.830909 -0.885745,0 -2.275148,0.260513 -1.389403,0.243146 -2.778806,0.712069 l -1.26783,-3.647183 q 1.788856,-0.677334 3.716653,-1.024684 1.945164,-0.347351 3.473507,-0.347351 4.116107,0 6.078639,1.684651 1.979899,1.667284 1.979899,4.828176 z m -8.614299,1.979899 q 0.885745,0 1.858327,-0.521026 0.972582,-0.538394 1.476241,-1.510976 v -2.987217 h -1.354668 q -2.292515,0 -3.369303,0.712069 -1.076787,0.694702 -1.076787,2.04937 0,1.05942 0.642599,1.667284 0.659966,0.590496 1.823591,0.590496 z"
         style="font-weight:bold;font-family:'Fira Code';-inkscape-font-specification:'Fira Code Bold'"
         id="path3308" />
      <path
         d="M 91.060807,4.201777 V 30.548332 H 85.572665 V 4.7749057 Z m 12.018333,7.90223 -6.061268,8.162743 6.564928,10.281582 h -6.252312 l -6.061271,-10.107907 6.061271,-8.336418 z"
         style="font-weight:bold;font-family:'Fira Code';-inkscape-font-specification:'Fira Code Bold'"
         id="path3310" />
      <path
         d="m 121.94024,25.233866 q 0,1.042052 0.27788,1.510975 0.29525,0.468924 0.93785,0.712069 l -1.12889,3.612448 q -1.63255,-0.156307 -2.76144,-0.712069 -1.11152,-0.573128 -1.75412,-1.719386 -1.05942,1.26783 -2.70934,1.893062 -1.64991,0.607864 -3.3693,0.607864 -2.84828,0 -4.5503,-1.615182 -1.68465,-1.632548 -1.68465,-4.185576 0,-3.004584 2.34462,-4.637133 2.36199,-1.632548 6.6344,-1.632548 h 2.48356 v -0.694702 q 0,-2.830909 -3.64718,-2.830909 -0.88575,0 -2.27515,0.260513 -1.38941,0.243146 -2.77881,0.712069 l -1.26783,-3.647183 q 1.78886,-0.677334 3.71665,-1.024684 1.94517,-0.347351 3.47351,-0.347351 4.11611,0 6.07864,1.684651 1.9799,1.667284 1.9799,4.828176 z m -8.6143,1.979899 q 0.88575,0 1.85833,-0.521026 0.97258,-0.538394 1.47624,-1.510976 v -2.987217 h -1.35467 q -2.29251,0 -3.3693,0.712069 -1.07679,0.694702 -1.07679,2.04937 0,1.05942 0.6426,1.667284 0.65997,0.590496 1.82359,0.590496 z"
         style="font-weight:bold;font-family:'Fira Code';-inkscape-font-specification:'Fira Code Bold'"
         id="path3312" />
    </g>
  </g>
</svg>
